<svg width="40" height="41" viewBox="0 0 40 41" fill="none" xmlns="http://www.w3.org/2000/svg">
<path d="M19.9388 0.5C8.9295 0.5 0 9.67875 0 20.9947C0 30.0478 5.74925 37.7177 13.578 40.4837C14.5565 40.6096 14.9235 39.9808 14.9235 39.4779V35.9574C9.419 37.2148 8.19575 33.1911 8.19575 33.1911C7.3395 30.8023 5.994 30.1735 5.994 30.1735C4.1591 28.9161 6.11625 28.9161 6.11625 28.9161C8.0735 29.0418 9.17425 31.0536 9.17425 31.0536C11.0092 34.1971 13.8228 33.3168 14.9235 32.8139C15.046 31.4308 15.6575 30.5507 16.1468 30.0478C11.7433 29.5449 7.09475 27.7844 7.09475 19.8633C7.09475 17.5999 7.82875 15.8396 9.17425 14.331L9.16725 14.3089L9.16723 14.3088C9.02618 13.8764 8.3378 11.7663 9.419 9.04994C9.419 9.04994 11.1315 8.54705 14.9235 11.1874C16.5138 10.6845 18.2263 10.5589 19.9388 10.5589C21.6513 10.5589 23.364 10.8102 24.954 11.1874C28.7462 8.54705 30.4588 9.04994 30.4588 9.04994C31.473 11.5988 30.9298 13.614 30.7425 14.3083L30.74 14.3174C30.7251 14.3725 30.7125 14.4191 30.7035 14.4566C31.9265 15.8396 32.783 17.7258 32.783 19.989C32.783 27.9103 28.1345 29.5449 23.731 30.0478C24.4647 30.6764 25.0765 31.9337 25.0765 33.8199V39.4779C25.0765 39.9808 25.4435 40.6096 26.422 40.4837C34.373 37.7177 40 30.0478 40 20.9947C39.8775 9.67875 30.948 0.5 19.9388 0.5Z" fill="white"/>
</svg>
