<svg width="40" height="41" viewBox="0 0 40 41" fill="none" xmlns="http://www.w3.org/2000/svg">
<path fill-rule="evenodd" clip-rule="evenodd" d="M0 6.89C0 1.70385 1.07854 0.5 6.11 0.5H33.5C38.5314 0.5 39.6071 1.70385 39.6071 6.89L40 34.11C40 39.2961 39.4214 40.5 34.39 40.5H6.5C1.46854 40.5 0.392881 39.2961 0.392881 34.11L0 6.89ZM6.22221 14.3976V24.4453V34.493H12.4172V14.3976H6.22221ZM5.8578 8.01219C5.8578 10.0781 7.31545 11.5805 9.31971 11.5805C11.324 11.5805 12.7816 10.0781 12.7816 8.01219C12.7816 5.94631 11.324 4.44385 9.31971 4.44385C7.49765 4.44385 5.8578 5.94631 5.8578 8.01219ZM28.8157 34.493H34.6463V22.0977C34.6463 15.9001 31.0022 13.8342 27.5403 13.8342C24.4428 13.8342 22.2563 15.9001 21.7097 17.2147V14.3976H15.8791V34.493H22.0741V23.788C22.0741 20.9709 23.8962 19.4684 25.7182 19.4684C27.5403 19.4684 28.8157 20.4075 28.8157 23.6002V34.493Z" fill="white"/>
</svg>
