<svg width="40" height="43" viewBox="0 0 40 43" fill="none" xmlns="http://www.w3.org/2000/svg">
<path d="M20 0C22.6522 0 25.1957 1.13259 27.0711 3.1486C28.9464 5.16462 30 7.89892 30 10.75C30 13.6011 28.9464 16.3354 27.0711 18.3514C25.1957 20.3674 22.6522 21.5 20 21.5C17.3478 21.5 14.8043 20.3674 12.9289 18.3514C11.0536 16.3354 10 13.6011 10 10.75C10 7.89892 11.0536 5.16462 12.9289 3.1486C14.8043 1.13259 17.3478 0 20 0ZM20 26.875C31.05 26.875 40 31.6856 40 37.625V43H0V37.625C0 31.6856 8.95 26.875 20 26.875Z" fill="white"/>
</svg>
