<svg width="40" height="36" viewBox="0 0 40 36" fill="none" xmlns="http://www.w3.org/2000/svg">
<path d="M34 28.9375H18V26.75C18 23.8406 23.34 22.375 26 22.375C28.66 22.375 34 23.8406 34 26.75V28.9375ZM26 11.4375C27.0609 11.4375 28.0783 11.8984 28.8284 12.7189C29.5786 13.5394 30 14.6522 30 15.8125C30 16.9728 29.5786 18.0856 28.8284 18.9061C28.0783 19.7266 27.0609 20.1875 26 20.1875C24.9391 20.1875 23.9217 19.7266 23.1716 18.9061C22.4214 18.0856 22 16.9728 22 15.8125C22 13.3844 23.8 11.4375 26 11.4375ZM36 4.875H20L16 0.5H4C1.78 0.5 0 2.44687 0 4.875V31.125C0 32.2853 0.421427 33.3981 1.17157 34.2186C1.92172 35.0391 2.93913 35.5 4 35.5H36C37.0609 35.5 38.0783 35.0391 38.8284 34.2186C39.5786 33.3981 40 32.2853 40 31.125V9.25C40 6.82188 38.2 4.875 36 4.875Z" fill="white"/>
</svg>
